<svg width="97" height="30" viewBox="0 0 97 30" fill="none" xmlns="http://www.w3.org/2000/svg">
<path d="M7.54545 23.5H0.151989V1.68182H7.6946C9.8608 1.68182 11.7216 2.11861 13.277 2.99219C14.8395 3.85866 16.0398 5.10511 16.8778 6.73153C17.7159 8.35795 18.1349 10.304 18.1349 12.5696C18.1349 14.8423 17.7124 16.7955 16.8672 18.429C16.0291 20.0625 14.8182 21.3161 13.2344 22.1896C11.6577 23.0632 9.76136 23.5 7.54545 23.5ZM4.1044 20.0803H7.35369C8.87358 20.0803 10.1413 19.8033 11.157 19.2493C12.1726 18.6882 12.9361 17.8537 13.4474 16.7457C13.9588 15.6307 14.2145 14.2386 14.2145 12.5696C14.2145 10.9006 13.9588 9.51562 13.4474 8.41477C12.9361 7.30682 12.1797 6.4794 11.1783 5.93253C10.1839 5.37855 8.94815 5.10156 7.47088 5.10156H4.1044V20.0803ZM28.9641 23.8196C27.3235 23.8196 25.9066 23.4787 24.7134 22.7969C23.5273 22.108 22.6147 21.1349 21.9755 19.8778C21.3363 18.6136 21.0167 17.1257 21.0167 15.4141C21.0167 13.7308 21.3363 12.2536 21.9755 10.9822C22.6218 9.70383 23.5238 8.70952 24.6815 7.99929C25.8391 7.28196 27.1992 6.9233 28.7617 6.9233C29.7702 6.9233 30.7219 7.08665 31.6168 7.41335C32.5188 7.73295 33.3143 8.23011 34.0032 8.90483C34.6992 9.57955 35.2461 10.4389 35.6438 11.483C36.0415 12.5199 36.2404 13.7557 36.2404 15.1903V16.3729H22.8278V13.7734H32.5437C32.5366 13.0348 32.3768 12.3778 32.0643 11.8026C31.7518 11.2202 31.315 10.7621 30.7539 10.4283C30.1999 10.0945 29.5536 9.92756 28.815 9.92756C28.0266 9.92756 27.3342 10.1193 26.7376 10.5028C26.141 10.8793 25.6758 11.3764 25.342 11.9943C25.0153 12.6051 24.8484 13.2763 24.8413 14.0078V16.277C24.8413 17.2287 25.0153 18.0455 25.3633 18.7273C25.7113 19.402 26.1978 19.9205 26.8228 20.2827C27.4478 20.6378 28.1793 20.8153 29.0174 20.8153C29.5785 20.8153 30.0863 20.7372 30.5408 20.581C30.9954 20.4176 31.3896 20.1797 31.7234 19.8672C32.0572 19.5547 32.3093 19.1676 32.4798 18.706L36.0806 19.1108C35.8533 20.0625 35.4201 20.8935 34.7809 21.6037C34.1488 22.3068 33.3391 22.8537 32.3519 23.2443C31.3647 23.6278 30.2354 23.8196 28.9641 23.8196ZM52.4363 11.4616L48.9206 11.8452C48.8212 11.4901 48.6472 11.1562 48.3986 10.8438C48.1571 10.5312 47.8304 10.2791 47.4185 10.0874C47.0066 9.8956 46.5023 9.79972 45.9057 9.79972C45.1032 9.79972 44.4284 9.97372 43.8816 10.3217C43.3418 10.6697 43.0755 11.1207 43.0826 11.6747C43.0755 12.1506 43.2495 12.5376 43.6046 12.8359C43.9668 13.1342 44.5634 13.3793 45.3944 13.571L48.1855 14.1676C49.7338 14.5014 50.8844 15.0305 51.6373 15.755C52.3972 16.4794 52.7807 17.4276 52.7878 18.5994C52.7807 19.6293 52.4789 20.5384 51.8823 21.3267C51.2928 22.108 50.4725 22.7187 49.4213 23.1591C48.3702 23.5994 47.1628 23.8196 45.7992 23.8196C43.7963 23.8196 42.1841 23.4006 40.9625 22.5625C39.7409 21.7173 39.013 20.5419 38.7786 19.0362L42.5392 18.674C42.7097 19.4126 43.0719 19.9702 43.6259 20.3466C44.1799 20.723 44.9007 20.9112 45.7885 20.9112C46.7047 20.9112 47.4398 20.723 47.9938 20.3466C48.5549 19.9702 48.8354 19.505 48.8354 18.951C48.8354 18.4822 48.6543 18.0952 48.2921 17.7898C47.937 17.4844 47.383 17.25 46.6301 17.0866L43.839 16.5007C42.2694 16.174 41.1081 15.6236 40.3553 14.8494C39.6025 14.0682 39.2296 13.081 39.2367 11.8878C39.2296 10.8793 39.503 10.0057 40.057 9.26704C40.6181 8.52131 41.3958 7.94602 42.3901 7.54119C43.3915 7.12926 44.5456 6.9233 45.8525 6.9233C47.7701 6.9233 49.2793 7.33168 50.3801 8.14844C51.4881 8.9652 52.1735 10.0696 52.4363 11.4616ZM55.9679 23.5V7.13636H59.8244V23.5H55.9679ZM57.9068 4.81392C57.296 4.81392 56.7704 4.61151 56.3301 4.20668C55.8897 3.79474 55.6696 3.30114 55.6696 2.72585C55.6696 2.14347 55.8897 1.64986 56.3301 1.24503C56.7704 0.833096 57.296 0.62713 57.9068 0.62713C58.5247 0.62713 59.0502 0.833096 59.4835 1.24503C59.9238 1.64986 60.144 2.14347 60.144 2.72585C60.144 3.30114 59.9238 3.79474 59.4835 4.20668C59.0502 4.61151 58.5247 4.81392 57.9068 4.81392ZM70.9066 29.9773C69.5217 29.9773 68.332 29.7891 67.3377 29.4126C66.3434 29.0433 65.5444 28.5462 64.9407 27.9212C64.337 27.2962 63.918 26.6037 63.6836 25.8438L67.1566 25.0021C67.3129 25.3217 67.5401 25.6378 67.8384 25.9503C68.1367 26.2699 68.538 26.5327 69.0423 26.7386C69.5536 26.9517 70.1964 27.0582 70.9705 27.0582C72.0643 27.0582 72.9698 26.7919 73.6871 26.2592C74.4045 25.7337 74.7631 24.8672 74.7631 23.6598V20.5597H74.5714C74.3725 20.9574 74.0813 21.3658 73.6978 21.7848C73.3214 22.2038 72.8207 22.5554 72.1957 22.8395C71.5778 23.1236 70.8001 23.2656 69.8626 23.2656C68.6055 23.2656 67.4656 22.9709 66.4428 22.3814C65.4272 21.7848 64.6175 20.897 64.0138 19.718C63.4173 18.532 63.119 17.0476 63.119 15.2649C63.119 13.468 63.4173 11.9517 64.0138 10.7159C64.6175 9.47301 65.4308 8.53196 66.4535 7.89276C67.4762 7.24645 68.6161 6.9233 69.8732 6.9233C70.832 6.9233 71.6204 7.08665 72.2383 7.41335C72.8633 7.73295 73.3604 8.12003 73.7298 8.57457C74.0991 9.02202 74.3796 9.4446 74.5714 9.84233H74.7844V7.13636H78.5877V23.7663C78.5877 25.1655 78.2539 26.3232 77.5863 27.2393C76.9187 28.1555 76.006 28.8409 74.8484 29.2955C73.6907 29.75 72.3768 29.9773 70.9066 29.9773ZM70.9386 20.2401C71.7553 20.2401 72.4513 20.0412 73.0266 19.6435C73.6019 19.2457 74.0387 18.674 74.337 17.9283C74.6353 17.1825 74.7844 16.2876 74.7844 15.2436C74.7844 14.2138 74.6353 13.3118 74.337 12.5376C74.0458 11.7635 73.6126 11.1634 73.0373 10.7372C72.4691 10.304 71.7695 10.0874 70.9386 10.0874C70.0792 10.0874 69.3619 10.3111 68.7866 10.7585C68.2113 11.206 67.7781 11.8203 67.4869 12.6016C67.1957 13.3757 67.0501 14.2564 67.0501 15.2436C67.0501 16.245 67.1957 17.1222 67.4869 17.875C67.7852 18.6207 68.2219 19.2031 68.7972 19.6222C69.3796 20.0341 70.0934 20.2401 70.9386 20.2401ZM86.3967 13.9119V23.5H82.5401V7.13636H86.2262V9.9169H86.418C86.7944 9.00071 87.3945 8.27273 88.2184 7.73295C89.0494 7.19318 90.0756 6.9233 91.2972 6.9233C92.4265 6.9233 93.4102 7.16477 94.2482 7.64773C95.0934 8.13068 95.7468 8.83026 96.2085 9.74645C96.6772 10.6626 96.908 11.7741 96.9009 13.081V23.5H93.0444V13.6776C93.0444 12.5838 92.7603 11.728 92.1921 11.1101C91.631 10.4922 90.8533 10.1832 89.859 10.1832C89.1843 10.1832 88.5842 10.3324 88.0586 10.6307C87.5401 10.9219 87.1317 11.3445 86.8335 11.8984C86.5423 12.4524 86.3967 13.1236 86.3967 13.9119Z" fill="#FC3314"/>
</svg>
