<svg width="24" height="25" viewBox="0 0 24 25" fill="none" xmlns="http://www.w3.org/2000/svg">
<path d="M11.9692 0.727051C5.55278 0.727051 0.302979 5.97685 0.302979 12.3933C0.302979 18.8097 5.55278 24.0595 11.9692 24.0595C18.3856 24.0595 23.6354 18.8097 23.6354 12.3933C23.6354 5.97685 18.3856 0.727051 11.9692 0.727051ZM21.5938 11.81C19.0662 11.4211 16.8301 11.4211 14.6913 11.7127C14.4969 11.1294 14.2052 10.6433 13.9136 10.06C16.1496 9.08785 17.9968 7.72679 19.2606 6.07407C20.6217 7.72679 21.4966 9.67116 21.5938 11.81ZM17.8023 4.81023C16.6357 6.36573 14.983 7.53235 12.9414 8.40732C11.9692 6.56016 10.8998 4.81023 9.63596 3.0603C10.4137 2.86586 11.1915 2.76864 11.9692 2.76864C14.2052 2.76864 16.2468 3.54639 17.8023 4.81023ZM7.59437 3.83804C8.85821 5.49076 10.0248 7.24069 10.997 9.08785C8.66377 9.76838 5.84444 10.06 2.63622 10.1573C3.31675 7.33791 5.16391 5.10189 7.59437 3.83804ZM2.34457 12.3933V12.1016C6.03887 12.1016 9.34431 11.7127 11.9692 10.8378C12.1636 11.3239 12.4553 11.81 12.6497 12.1988C9.3443 13.2682 6.62218 15.3098 4.5806 18.518C3.21954 16.8653 2.34457 14.7265 2.34457 12.3933ZM6.03887 19.9763C7.98324 16.9625 10.4137 15.0182 13.4275 14.1432C14.3025 16.4765 14.983 18.9069 15.3719 21.4346C12.1636 22.6012 8.66377 22.0179 6.03887 19.9763ZM17.3162 20.3652C16.9274 18.032 16.2468 15.7959 15.4691 13.6571C17.3162 13.3655 19.2606 13.4627 21.4966 13.8516C21.0105 16.5737 19.5523 18.9069 17.3162 20.3652Z" fill="white"/>
</svg>
