<svg width="15" height="16" viewBox="0 0 15 16" fill="none" xmlns="http://www.w3.org/2000/svg">
<path fill-rule="evenodd" clip-rule="evenodd" d="M4.40795 0.711504C5.20773 0.674686 5.46273 0.666504 7.5 0.666504C9.53727 0.666504 9.79227 0.675368 10.5914 0.711504C11.3905 0.74764 11.9359 0.87514 12.4132 1.05991C12.913 1.24878 13.3664 1.544 13.7414 1.92582C14.1232 2.30014 14.4177 2.75287 14.6059 3.25332C14.7914 3.73059 14.9182 4.27605 14.955 5.07378C14.9918 5.87491 15 6.12991 15 8.1665C15 10.2038 14.9911 10.4588 14.955 11.2585C14.9189 12.0563 14.7914 12.6017 14.6059 13.079C14.4177 13.5795 14.1227 14.033 13.7414 14.4079C13.3664 14.7897 12.913 15.0842 12.4132 15.2724C11.9359 15.4579 11.3905 15.5847 10.5927 15.6215C9.79227 15.6583 9.53727 15.6665 7.5 15.6665C5.46273 15.6665 5.20773 15.6576 4.40795 15.6215C3.61023 15.5854 3.06477 15.4579 2.5875 15.2724C2.08699 15.0842 1.63351 14.7892 1.25864 14.4079C0.877077 14.0333 0.581805 13.5801 0.393409 13.0797C0.208636 12.6024 0.0818182 12.057 0.045 11.2592C0.00818181 10.4581 0 10.2031 0 8.1665C0 6.12923 0.00886363 5.87423 0.045 5.07514C0.0811364 4.27605 0.208636 3.73059 0.393409 3.25332C0.582084 2.75292 0.877581 2.29967 1.25932 1.92514C1.63366 1.54366 2.08669 1.2484 2.58682 1.05991C3.06409 0.87514 3.61023 0.748322 4.40795 0.711504ZM10.5307 2.0615C9.73977 2.02537 9.5025 2.01787 7.5 2.01787C5.4975 2.01787 5.26023 2.02537 4.46932 2.0615C3.73773 2.09491 3.34091 2.21696 3.07636 2.31991C2.72659 2.45628 2.47636 2.61787 2.21386 2.88037C1.96503 3.12245 1.77353 3.41715 1.65341 3.74287C1.55045 4.00741 1.42841 4.40423 1.395 5.13582C1.35886 5.92673 1.35136 6.164 1.35136 8.1665C1.35136 10.169 1.35886 10.4063 1.395 11.1972C1.42841 11.9288 1.55045 12.3256 1.65341 12.5901C1.77341 12.9154 1.965 13.2106 2.21386 13.4526C2.45591 13.7015 2.75114 13.8931 3.07636 14.0131C3.34091 14.1161 3.73773 14.2381 4.46932 14.2715C5.26023 14.3076 5.49682 14.3151 7.5 14.3151C9.50318 14.3151 9.73977 14.3076 10.5307 14.2715C11.2623 14.2381 11.6591 14.1161 11.9236 14.0131C12.2734 13.8767 12.5236 13.7151 12.7861 13.4526C13.035 13.2106 13.2266 12.9154 13.3466 12.5901C13.4495 12.3256 13.5716 11.9288 13.605 11.1972C13.6411 10.4063 13.6486 10.169 13.6486 8.1665C13.6486 6.164 13.6411 5.92673 13.605 5.13582C13.5716 4.40423 13.4495 4.00741 13.3466 3.74287C13.2102 3.39309 13.0486 3.14287 12.7861 2.88037C12.544 2.63155 12.2493 2.44006 11.9236 2.31991C11.6591 2.21696 11.2623 2.09491 10.5307 2.0615ZM6.54205 10.4785C7.07704 10.7013 7.67276 10.7313 8.22745 10.5636C8.78214 10.3959 9.2614 10.0408 9.58337 9.55894C9.90534 9.07712 10.05 8.49846 9.99276 7.9218C9.93548 7.34514 9.67978 6.80626 9.26932 6.39719C9.00766 6.13569 8.69128 5.93547 8.34295 5.81092C7.99463 5.68638 7.62302 5.64061 7.25488 5.67692C6.88675 5.71323 6.53124 5.83072 6.21396 6.02091C5.89667 6.21111 5.62551 6.46928 5.41998 6.77686C5.21445 7.08443 5.07967 7.43375 5.02535 7.79966C4.97103 8.16557 4.99851 8.53898 5.10582 8.89299C5.21313 9.24701 5.3976 9.57283 5.64595 9.847C5.89429 10.1212 6.20033 10.3369 6.54205 10.4785ZM4.77409 5.44059C5.13206 5.08262 5.55704 4.79867 6.02475 4.60493C6.49246 4.4112 6.99375 4.31149 7.5 4.31149C8.00625 4.31149 8.50754 4.4112 8.97525 4.60493C9.44296 4.79866 9.86794 5.08262 10.2259 5.44059C10.5839 5.79857 10.8678 6.22354 11.0616 6.69125C11.2553 7.15896 11.355 7.66026 11.355 8.1665C11.355 8.67275 11.2553 9.17404 11.0616 9.64176C10.8678 10.1095 10.5839 10.5344 10.2259 10.8924C9.50295 11.6154 8.52241 12.0215 7.5 12.0215C6.47759 12.0215 5.49705 11.6154 4.77409 10.8924C4.05113 10.1695 3.64498 9.18892 3.64498 8.1665C3.64498 7.14409 4.05113 6.16355 4.77409 5.44059ZM12.21 4.88559C12.2987 4.80191 12.3697 4.70129 12.4188 4.58967C12.468 4.47805 12.4942 4.35771 12.496 4.23577C12.4977 4.11384 12.475 3.99279 12.4292 3.87978C12.3833 3.76678 12.3153 3.66412 12.2291 3.57789C12.1428 3.49166 12.0402 3.42361 11.9272 3.37777C11.8142 3.33192 11.6931 3.30921 11.5712 3.31099C11.4492 3.31277 11.3289 3.339 11.2173 3.38812C11.1057 3.43724 11.005 3.50825 10.9214 3.59696C10.7586 3.76948 10.6695 3.99863 10.673 4.23577C10.6764 4.47292 10.7722 4.69938 10.9399 4.86708C11.1076 5.03478 11.334 5.13052 11.5712 5.13398C11.8083 5.13744 12.0375 5.04834 12.21 4.88559Z" fill="#1F1F1F"/>
</svg>
