<svg width="25" height="20" viewBox="0 0 25 20" fill="none" xmlns="http://www.w3.org/2000/svg">
<path d="M8.30825 19.8747C17.1133 19.8747 21.9286 12.5798 21.9286 6.25437C21.9286 6.04711 21.9243 5.84092 21.9148 5.63552C22.8494 4.95988 23.662 4.11652 24.3029 3.15693C23.4452 3.538 22.5222 3.79462 21.5538 3.91032C22.5421 3.31774 23.3011 2.37991 23.6591 1.26216C22.734 1.81069 21.7096 2.20928 20.6195 2.42423C19.7456 1.49383 18.5015 0.911865 17.125 0.911865C14.4811 0.911865 12.3371 3.05582 12.3371 5.69841C12.3371 6.07418 12.3793 6.43933 12.4611 6.78989C8.48286 6.59007 4.95498 4.68495 2.59422 1.78866C2.18263 2.49588 1.94565 3.31801 1.94565 4.19454C1.94565 5.85525 2.79086 7.32144 4.07607 8.17939C3.29083 8.15524 2.55309 7.93923 1.90796 7.58044C1.9069 7.60034 1.9069 7.62051 1.9069 7.64148C1.9069 9.96005 3.55726 11.8957 5.74739 12.3343C5.34535 12.4439 4.92234 12.5029 4.48554 12.5029C4.17717 12.5029 3.8773 12.4721 3.58566 12.4166C4.19495 14.3183 5.96234 15.7025 8.05773 15.7415C6.41905 17.0256 4.35497 17.7907 2.1123 17.7907C1.72618 17.7907 1.34511 17.7687 0.970398 17.7244C3.08888 19.082 5.60435 19.8747 8.30825 19.8747Z" fill="white"/>
</svg>
