<svg width="15" height="13" viewBox="0 0 15 13" fill="none" xmlns="http://www.w3.org/2000/svg">
<path d="M15 2.09195C14.4484 2.32627 13.8481 2.49491 13.2298 2.56059C13.8717 2.18504 14.3525 1.59172 14.5818 0.891955C13.9794 1.24483 13.3195 1.49228 12.6313 1.62332C12.3437 1.32052 11.9958 1.0793 11.6094 0.91469C11.2229 0.750076 10.8062 0.665595 10.3852 0.666511C8.68165 0.666511 7.31162 2.02627 7.31162 3.69491C7.31162 3.92923 7.34046 4.16355 7.38733 4.38899C4.83656 4.25763 2.56159 3.05763 1.04915 1.22036C0.77357 1.68388 0.629156 2.21165 0.630934 2.74876C0.630934 3.79965 1.17354 4.72627 2.00096 5.27124C1.51335 5.25233 1.03715 5.12035 0.611104 4.88604V4.92331C0.611104 6.39491 1.66747 7.61444 3.07535 7.89491C2.81101 7.96253 2.53907 7.99712 2.26595 7.99787C2.06586 7.99787 1.87658 7.97834 1.68549 7.95171C2.07487 9.15171 3.20875 10.0233 4.55895 10.0517C3.50258 10.8665 2.17943 11.3458 0.742699 11.3458C0.484918 11.3458 0.246966 11.3369 0 11.3085C1.36282 12.1695 2.97981 12.6665 4.72119 12.6665C10.3744 12.6665 13.4677 8.05467 13.4677 4.05172C13.4677 3.92036 13.4677 3.78899 13.4587 3.65763C14.0572 3.22627 14.5818 2.69195 15 2.09195Z" fill="#1F1F1F"/>
</svg>
