<svg width="16" height="16" viewBox="0 0 16 16" fill="none" xmlns="http://www.w3.org/2000/svg">
<path d="M8 0.166504C3.875 0.166504 0.5 3.5415 0.5 7.6665C0.5 11.7915 3.875 15.1665 8 15.1665C12.125 15.1665 15.5 11.7915 15.5 7.6665C15.5 3.5415 12.125 0.166504 8 0.166504ZM14.1875 7.2915C12.5625 7.0415 11.125 7.0415 9.75 7.229C9.625 6.854 9.4375 6.5415 9.25 6.1665C10.6875 5.5415 11.875 4.6665 12.6875 3.604C13.5625 4.6665 14.125 5.9165 14.1875 7.2915ZM11.75 2.7915C11 3.7915 9.9375 4.5415 8.625 5.104C8 3.9165 7.3125 2.7915 6.5 1.6665C7 1.5415 7.5 1.479 8 1.479C9.4375 1.479 10.75 1.979 11.75 2.7915ZM5.1875 2.1665C6 3.229 6.75 4.354 7.375 5.5415C5.875 5.979 4.0625 6.1665 2 6.229C2.4375 4.4165 3.625 2.979 5.1875 2.1665ZM1.8125 7.6665V7.479C4.1875 7.479 6.3125 7.229 8 6.6665C8.125 6.979 8.3125 7.2915 8.4375 7.5415C6.3125 8.229 4.5625 9.5415 3.25 11.604C2.375 10.5415 1.8125 9.1665 1.8125 7.6665ZM4.1875 12.5415C5.4375 10.604 7 9.354 8.9375 8.7915C9.5 10.2915 9.9375 11.854 10.1875 13.479C8.125 14.229 5.875 13.854 4.1875 12.5415ZM11.4375 12.7915C11.1875 11.2915 10.75 9.854 10.25 8.479C11.4375 8.2915 12.6875 8.354 14.125 8.604C13.8125 10.354 12.875 11.854 11.4375 12.7915Z" fill="#1F1F1F"/>
</svg>
