<svg width="24" height="25" viewBox="0 0 24 25" fill="none" xmlns="http://www.w3.org/2000/svg">
<path d="M12.3042 2.86586C15.4152 2.86586 15.804 2.86586 17.0679 2.96308C20.2761 3.0603 21.7344 4.61579 21.8316 7.72679C21.9288 8.99063 21.9288 9.28228 21.9288 12.3933C21.9288 15.5043 21.9288 15.8931 21.8316 17.0598C21.7344 20.1708 20.1789 21.7263 17.0679 21.8235C15.804 21.9207 15.5124 21.9207 12.3042 21.9207C9.19317 21.9207 8.8043 21.9207 7.63768 21.8235C4.42946 21.7263 2.97118 20.1708 2.87397 17.0598C2.77675 15.7959 2.77675 15.5043 2.77675 12.3933C2.77675 9.28228 2.77675 8.89341 2.87397 7.72679C2.97118 4.61579 4.52668 3.0603 7.63768 2.96308C8.8043 2.86586 9.19317 2.86586 12.3042 2.86586ZM12.3042 0.727051C9.09595 0.727051 8.70708 0.727051 7.54046 0.824269C3.26284 1.01871 0.929595 3.35195 0.735158 7.62957C0.637939 8.79619 0.637939 9.18507 0.637939 12.3933C0.637939 15.6015 0.637939 15.9904 0.735158 17.157C0.929595 21.4346 3.26284 23.7678 7.54046 23.9623C8.70708 24.0595 9.09595 24.0595 12.3042 24.0595C15.5124 24.0595 15.9013 24.0595 17.0679 23.9623C21.3455 23.7678 23.6787 21.4346 23.8732 17.157C23.9704 15.9904 23.9704 15.6015 23.9704 12.3933C23.9704 9.18507 23.9704 8.79619 23.8732 7.62957C23.6787 3.35195 21.3455 1.01871 17.0679 0.824269C15.9013 0.727051 15.5124 0.727051 12.3042 0.727051ZM12.3042 6.36573C8.99874 6.36573 6.27662 9.08785 6.27662 12.3933C6.27662 15.6987 8.99874 18.4208 12.3042 18.4208C15.6096 18.4208 18.3317 15.6987 18.3317 12.3933C18.3317 9.08785 15.6096 6.36573 12.3042 6.36573ZM12.3042 16.282C10.1654 16.282 8.41542 14.5321 8.41542 12.3933C8.41542 10.2545 10.1654 8.50454 12.3042 8.50454C14.443 8.50454 16.1929 10.2545 16.1929 12.3933C16.1929 14.5321 14.443 16.282 12.3042 16.282ZM18.5262 4.81023C17.7484 4.81023 17.1651 5.39354 17.1651 6.17129C17.1651 6.94904 17.7484 7.53235 18.5262 7.53235C19.3039 7.53235 19.8872 6.94904 19.8872 6.17129C19.8872 5.39354 19.3039 4.81023 18.5262 4.81023Z" fill="white"/>
</svg>
