<svg width="135" height="46" viewBox="0 0 135 46" fill="none" xmlns="http://www.w3.org/2000/svg">
<path d="M14.0092 17.6797C13.9098 16.7493 13.4908 16.0249 12.7521 15.5064C12.0206 14.9879 11.0689 14.7287 9.89702 14.7287C9.07315 14.7287 8.36648 14.853 7.77699 15.1016C7.1875 15.3501 6.73651 15.6875 6.42401 16.1136C6.11151 16.5398 5.9517 17.0263 5.9446 17.5732C5.9446 18.0277 6.04759 18.4219 6.25355 18.7557C6.46662 19.0895 6.75426 19.3736 7.11648 19.608C7.47869 19.8352 7.87997 20.027 8.32031 20.1832C8.76065 20.3395 9.20455 20.4709 9.65199 20.5774L11.6974 21.0888C12.5213 21.2805 13.3132 21.5398 14.0732 21.8665C14.8402 22.1932 15.5256 22.6051 16.1293 23.1023C16.7401 23.5994 17.223 24.1996 17.5781 24.9027C17.9332 25.6058 18.1108 26.4297 18.1108 27.3743C18.1108 28.6527 17.7841 29.7784 17.1307 30.7514C16.4773 31.7173 15.5327 32.4737 14.2969 33.0206C13.0682 33.5604 11.5803 33.8303 9.8331 33.8303C8.13565 33.8303 6.66193 33.5675 5.41193 33.0419C4.16903 32.5163 3.19602 31.7493 2.4929 30.7408C1.79688 29.7322 1.42045 28.5036 1.36364 27.0547H5.25213C5.30895 27.8146 5.54332 28.4467 5.95526 28.951C6.36719 29.4553 6.90341 29.8317 7.56392 30.0803C8.23153 30.3288 8.97727 30.4531 9.80114 30.4531C10.6605 30.4531 11.4134 30.3253 12.0597 30.0696C12.7131 29.8068 13.2244 29.4446 13.5938 28.983C13.9631 28.5142 14.1513 27.9673 14.1584 27.3423C14.1513 26.7741 13.9844 26.3054 13.6577 25.9361C13.331 25.5597 12.8729 25.2472 12.2834 24.9986C11.701 24.7429 11.0192 24.5156 10.2379 24.3168L7.75568 23.6776C5.95881 23.2159 4.53835 22.5163 3.49432 21.5788C2.45739 20.6342 1.93892 19.3807 1.93892 17.8182C1.93892 16.5327 2.28693 15.407 2.98295 14.4411C3.68608 13.4751 4.64134 12.7259 5.84872 12.1932C7.05611 11.6534 8.4233 11.3835 9.95028 11.3835C11.4986 11.3835 12.8551 11.6534 14.0199 12.1932C15.1918 12.7259 16.1115 13.468 16.7791 14.4197C17.4467 15.3643 17.7912 16.451 17.8125 17.6797H14.0092Z" fill="#1F1F1F"/>
<path d="M23.6424 11.6818H27.5628V27.0227C27.5557 28.429 27.2574 29.6399 26.6679 30.6555C26.0784 31.6641 25.2546 32.4418 24.1963 32.9886C23.1452 33.5284 21.9201 33.7983 20.5209 33.7983C19.2425 33.7983 18.0919 33.571 17.0692 33.1165C16.0536 32.6548 15.2475 31.973 14.6509 31.071C14.0543 30.169 13.756 29.0469 13.756 27.7045H17.6871C17.6942 28.294 17.8221 28.8018 18.0706 29.228C18.3263 29.6541 18.6779 29.9808 19.1253 30.2081C19.5728 30.4354 20.0877 30.549 20.6701 30.549C21.3022 30.549 21.8384 30.4176 22.2787 30.1548C22.7191 29.8849 23.0529 29.4872 23.2801 28.9616C23.5145 28.4361 23.6353 27.7898 23.6424 27.0227V11.6818Z" fill="#FC3314"/>
<path d="M43.5455 33.5H36.152V11.6818H43.6946C45.8608 11.6818 47.7216 12.1186 49.277 12.9922C50.8395 13.8587 52.0398 15.1051 52.8778 16.7315C53.7159 18.358 54.1349 20.304 54.1349 22.5696C54.1349 24.8423 53.7124 26.7955 52.8672 28.429C52.0291 30.0625 50.8182 31.3161 49.2344 32.1896C47.6577 33.0632 45.7614 33.5 43.5455 33.5ZM40.1044 30.0803H43.3537C44.8736 30.0803 46.1413 29.8033 47.157 29.2493C48.1726 28.6882 48.9361 27.8537 49.4474 26.7457C49.9588 25.6307 50.2145 24.2386 50.2145 22.5696C50.2145 20.9006 49.9588 19.5156 49.4474 18.4148C48.9361 17.3068 48.1797 16.4794 47.1783 15.9325C46.1839 15.3786 44.9482 15.1016 43.4709 15.1016H40.1044V30.0803ZM64.9641 33.8196C63.3235 33.8196 61.9066 33.4787 60.7134 32.7969C59.5273 32.108 58.6147 31.1349 57.9755 29.8778C57.3363 28.6136 57.0167 27.1257 57.0167 25.4141C57.0167 23.7308 57.3363 22.2536 57.9755 20.9822C58.6218 19.7038 59.5238 18.7095 60.6815 17.9993C61.8391 17.282 63.1992 16.9233 64.7617 16.9233C65.7702 16.9233 66.7219 17.0866 67.6168 17.4134C68.5188 17.733 69.3143 18.2301 70.0032 18.9048C70.6992 19.5795 71.2461 20.4389 71.6438 21.483C72.0415 22.5199 72.2404 23.7557 72.2404 25.1903V26.3729H58.8278V23.7734H68.5437C68.5366 23.0348 68.3768 22.3778 68.0643 21.8026C67.7518 21.2202 67.315 20.7621 66.7539 20.4283C66.1999 20.0945 65.5536 19.9276 64.815 19.9276C64.0266 19.9276 63.3342 20.1193 62.7376 20.5028C62.141 20.8793 61.6758 21.3764 61.342 21.9943C61.0153 22.6051 60.8484 23.2763 60.8413 24.0078V26.277C60.8413 27.2287 61.0153 28.0455 61.3633 28.7273C61.7113 29.402 62.1978 29.9205 62.8228 30.2827C63.4478 30.6378 64.1793 30.8153 65.0174 30.8153C65.5785 30.8153 66.0863 30.7372 66.5408 30.581C66.9954 30.4176 67.3896 30.1797 67.7234 29.8672C68.0572 29.5547 68.3093 29.1676 68.4798 28.706L72.0806 29.1108C71.8533 30.0625 71.4201 30.8935 70.7809 31.6037C70.1488 32.3068 69.3391 32.8537 68.3519 33.2443C67.3647 33.6278 66.2354 33.8196 64.9641 33.8196ZM88.4363 21.4616L84.9206 21.8452C84.8212 21.4901 84.6472 21.1562 84.3986 20.8438C84.1571 20.5312 83.8304 20.2791 83.4185 20.0874C83.0066 19.8956 82.5023 19.7997 81.9057 19.7997C81.1032 19.7997 80.4284 19.9737 79.8816 20.3217C79.3418 20.6697 79.0755 21.1207 79.0826 21.6747C79.0755 22.1506 79.2495 22.5376 79.6046 22.8359C79.9668 23.1342 80.5634 23.3793 81.3944 23.571L84.1855 24.1676C85.7338 24.5014 86.8844 25.0305 87.6373 25.755C88.3972 26.4794 88.7807 27.4276 88.7878 28.5994C88.7807 29.6293 88.4789 30.5384 87.8823 31.3267C87.2928 32.108 86.4725 32.7187 85.4213 33.1591C84.3702 33.5994 83.1628 33.8196 81.7992 33.8196C79.7963 33.8196 78.1841 33.4006 76.9625 32.5625C75.7409 31.7173 75.013 30.5419 74.7786 29.0362L78.5392 28.674C78.7097 29.4126 79.0719 29.9702 79.6259 30.3466C80.1799 30.723 80.9007 30.9112 81.7885 30.9112C82.7047 30.9112 83.4398 30.723 83.9938 30.3466C84.5549 29.9702 84.8354 29.505 84.8354 28.951C84.8354 28.4822 84.6543 28.0952 84.2921 27.7898C83.937 27.4844 83.383 27.25 82.6301 27.0866L79.839 26.5007C78.2694 26.174 77.1081 25.6236 76.3553 24.8494C75.6025 24.0682 75.2296 23.081 75.2367 21.8878C75.2296 20.8793 75.503 20.0057 76.057 19.267C76.6181 18.5213 77.3958 17.946 78.3901 17.5412C79.3915 17.1293 80.5456 16.9233 81.8525 16.9233C83.7701 16.9233 85.2793 17.3317 86.3801 18.1484C87.4881 18.9652 88.1735 20.0696 88.4363 21.4616ZM91.9679 33.5V17.1364H95.8244V33.5H91.9679ZM93.9068 14.8139C93.296 14.8139 92.7704 14.6115 92.3301 14.2067C91.8897 13.7947 91.6696 13.3011 91.6696 12.7259C91.6696 12.1435 91.8897 11.6499 92.3301 11.245C92.7704 10.8331 93.296 10.6271 93.9068 10.6271C94.5247 10.6271 95.0502 10.8331 95.4835 11.245C95.9238 11.6499 96.144 12.1435 96.144 12.7259C96.144 13.3011 95.9238 13.7947 95.4835 14.2067C95.0502 14.6115 94.5247 14.8139 93.9068 14.8139ZM106.907 39.9773C105.522 39.9773 104.332 39.7891 103.338 39.4126C102.343 39.0433 101.544 38.5462 100.941 37.9212C100.337 37.2962 99.918 36.6037 99.6836 35.8438L103.157 35.0021C103.313 35.3217 103.54 35.6378 103.838 35.9503C104.137 36.2699 104.538 36.5327 105.042 36.7386C105.554 36.9517 106.196 37.0582 106.971 37.0582C108.064 37.0582 108.97 36.7919 109.687 36.2592C110.404 35.7337 110.763 34.8672 110.763 33.6598V30.5597H110.571C110.373 30.9574 110.081 31.3658 109.698 31.7848C109.321 32.2038 108.821 32.5554 108.196 32.8395C107.578 33.1236 106.8 33.2656 105.863 33.2656C104.605 33.2656 103.466 32.9709 102.443 32.3814C101.427 31.7848 100.618 30.897 100.014 29.718C99.4173 28.532 99.119 27.0476 99.119 25.2649C99.119 23.468 99.4173 21.9517 100.014 20.7159C100.618 19.473 101.431 18.532 102.453 17.8928C103.476 17.2464 104.616 16.9233 105.873 16.9233C106.832 16.9233 107.62 17.0866 108.238 17.4134C108.863 17.733 109.36 18.12 109.73 18.5746C110.099 19.022 110.38 19.4446 110.571 19.8423H110.784V17.1364H114.588V33.7663C114.588 35.1655 114.254 36.3232 113.586 37.2393C112.919 38.1555 112.006 38.8409 110.848 39.2955C109.691 39.75 108.377 39.9773 106.907 39.9773ZM106.939 30.2401C107.755 30.2401 108.451 30.0412 109.027 29.6435C109.602 29.2457 110.039 28.674 110.337 27.9283C110.635 27.1825 110.784 26.2876 110.784 25.2436C110.784 24.2138 110.635 23.3118 110.337 22.5376C110.046 21.7635 109.613 21.1634 109.037 20.7372C108.469 20.304 107.77 20.0874 106.939 20.0874C106.079 20.0874 105.362 20.3111 104.787 20.7585C104.211 21.206 103.778 21.8203 103.487 22.6016C103.196 23.3757 103.05 24.2564 103.05 25.2436C103.05 26.245 103.196 27.1222 103.487 27.875C103.785 28.6207 104.222 29.2031 104.797 29.6222C105.38 30.0341 106.093 30.2401 106.939 30.2401ZM122.397 23.9119V33.5H118.54V17.1364H122.226V19.9169H122.418C122.794 19.0007 123.395 18.2727 124.218 17.733C125.049 17.1932 126.076 16.9233 127.297 16.9233C128.426 16.9233 129.41 17.1648 130.248 17.6477C131.093 18.1307 131.747 18.8303 132.208 19.7464C132.677 20.6626 132.908 21.7741 132.901 23.081V33.5H129.044V23.6776C129.044 22.5838 128.76 21.728 128.192 21.1101C127.631 20.4922 126.853 20.1832 125.859 20.1832C125.184 20.1832 124.584 20.3324 124.059 20.6307C123.54 20.9219 123.132 21.3445 122.833 21.8984C122.542 22.4524 122.397 23.1236 122.397 23.9119Z" fill="#FC3314"/>
</svg>
